<?xml version="1.0" encoding="utf-8"?>
<!-- Generator: Adobe Illustrator 21.1.0, SVG Export Plug-In . SVG Version: 6.00 Build 0)  -->
<svg version="1.1" id="Layer_1" xmlns="http://www.w3.org/2000/svg" xmlns:xlink="http://www.w3.org/1999/xlink" x="0px" y="0px"
	 viewBox="0 0 420 420" style="enable-background:new 0 0 420 420;" xml:space="preserve">
<style type="text/css">
	.st0{fill:#DA1106;}
</style>
<g>
	<g>
		<polygon class="st0" points="64.3,125.9 210,41.7 219,46.9 219,352.3 255,331.5 280,239.8 301.7,304.5 337.7,283.7 337.7,136.3 
			301.7,115.5 301.7,228 280,166.5 255,228 255,26.2 210,0.2 28.3,105.1 28.3,314.9 147,383.5 147,341.9 64.3,294.1 		"/>
	</g>
	<polygon class="st0" points="273,36.5 273,78.1 355.7,125.9 355.7,294.1 210,378.3 201,373.1 201,310.7 118.3,263 118.3,157 
		201,109.3 201,67.7 82.3,136.3 82.3,283.7 165,331.5 165,393.8 210,419.8 391.7,314.9 391.7,105.1 	"/>
</g>
</svg>
